<svg xmlns="http://www.w3.org/2000/svg" xmlns:xlink="http://www.w3.org/1999/xlink" width="40" zoomAndPan="magnify" viewBox="0 0 30 30.000001" height="40" preserveAspectRatio="xMidYMid meet" version="1.0"><defs><clipPath id="06e4b03f71"><path d="M 0.484375 16 L 2 16 L 2 19 L 0.484375 19 Z M 0.484375 16 " clip-rule="nonzero"/></clipPath><clipPath id="dd92f804f8"><path d="M 0.484375 15 L 2 15 L 2 18 L 0.484375 18 Z M 0.484375 15 " clip-rule="nonzero"/></clipPath><clipPath id="feea9a59bf"><path d="M 0.484375 12 L 2 12 L 2 15 L 0.484375 15 Z M 0.484375 12 " clip-rule="nonzero"/></clipPath><clipPath id="fcb0232a70"><path d="M 0.484375 13 L 1 13 L 1 16 L 0.484375 16 Z M 0.484375 13 " clip-rule="nonzero"/></clipPath><clipPath id="2b0d1df6f4"><path d="M 0.484375 11 L 1 11 L 1 14 L 0.484375 14 Z M 0.484375 11 " clip-rule="nonzero"/></clipPath><clipPath id="84f25a365a"><path d="M 0.484375 10 L 2 10 L 2 13 L 0.484375 13 Z M 0.484375 10 " clip-rule="nonzero"/></clipPath><clipPath id="02610130e2"><path d="M 0.484375 8 L 2 8 L 2 11 L 0.484375 11 Z M 0.484375 8 " clip-rule="nonzero"/></clipPath><clipPath id="097ae3b351"><path d="M 23 17 L 23.710938 17 L 23.710938 19 L 23 19 Z M 23 17 " clip-rule="nonzero"/></clipPath><clipPath id="f1beb56ffd"><path d="M 23 20 L 23.710938 20 L 23.710938 22 L 23 22 Z M 23 20 " clip-rule="nonzero"/></clipPath></defs><path fill="#ff914d" d="M 5.582031 24.851562 C 5.3125 24.574219 4.84375 24.121094 4.652344 24 C 4.640625 23.992188 4.625 23.988281 4.613281 23.988281 C 4.617188 24.121094 5.835938 25.300781 5.972656 25.304688 C 5.96875 25.257812 5.757812 25.03125 5.582031 24.851562 " fill-opacity="1" fill-rule="nonzero"/><path fill="#ff914d" d="M 7.164062 25.996094 C 6.882812 25.753906 6.371094 25.363281 6.121094 25.265625 C 6.101562 25.257812 6.074219 25.25 6.0625 25.261719 C 6.015625 25.304688 6.335938 25.605469 6.664062 25.859375 C 7.085938 26.1875 7.472656 26.421875 7.539062 26.398438 C 7.5625 26.347656 7.3125 26.125 7.164062 25.996094 " fill-opacity="1" fill-rule="nonzero"/><path fill="#ff914d" d="M 1.894531 19.835938 C 1.890625 19.832031 1.878906 19.824219 1.871094 19.824219 C 1.867188 19.996094 2.683594 21.554688 2.777344 21.5625 C 2.777344 21.492188 2.617188 21.152344 2.519531 20.953125 C 2.351562 20.609375 2.03125 20 1.894531 19.835938 " fill-opacity="1" fill-rule="nonzero"/><path fill="#ff914d" d="M 2.910156 21.507812 C 2.894531 21.5 2.871094 21.492188 2.859375 21.503906 C 2.753906 21.609375 3.710938 23.023438 3.9375 23.09375 C 4.023438 23.121094 3.929688 22.886719 3.707031 22.523438 C 3.496094 22.183594 3.109375 21.644531 2.910156 21.507812 " fill-opacity="1" fill-rule="nonzero"/><path fill="#ff914d" d="M 5.132812 23.925781 C 4.902344 23.617188 4.457031 23.132812 4.191406 23.023438 C 4.167969 23.015625 4.136719 23.007812 4.121094 23.019531 C 3.933594 23.148438 5.011719 24.410156 5.347656 24.457031 C 5.46875 24.476562 5.382812 24.257812 5.132812 23.925781 " fill-opacity="1" fill-rule="nonzero"/><path fill="#ff914d" d="M 1.179688 18.019531 C 1.1875 18.050781 1.207031 18.101562 1.226562 18.160156 C 1.210938 18.113281 1.191406 18.0625 1.179688 18.015625 L 1.179688 18.019531 " fill-opacity="1" fill-rule="nonzero"/><path fill="#ff914d" d="M 2.363281 20.414062 C 2.492188 20.484375 2.46875 20.195312 2.3125 19.742188 C 2.175781 19.347656 1.894531 18.730469 1.691406 18.585938 C 1.675781 18.582031 1.660156 18.574219 1.648438 18.574219 C 1.4375 18.617188 2.070312 20.246094 2.363281 20.414062 " fill-opacity="1" fill-rule="nonzero"/><path fill="#ff914d" d="M 3.554688 22.011719 C 3.730469 22.070312 3.714844 21.796875 3.523438 21.371094 C 3.359375 21.003906 3 20.4375 2.71875 20.316406 C 2.695312 20.308594 2.664062 20.300781 2.636719 20.316406 C 2.394531 20.46875 3.15625 21.882812 3.554688 22.011719 " fill-opacity="1" fill-rule="nonzero"/><path fill="#ff914d" d="M 4.949219 23.4375 C 5.207031 23.519531 5.226562 23.253906 4.996094 22.839844 C 4.777344 22.449219 4.347656 21.972656 4.03125 21.886719 C 4 21.882812 3.960938 21.878906 3.925781 21.898438 C 3.625 22.054688 4.429688 23.265625 4.949219 23.4375 " fill-opacity="1" fill-rule="nonzero"/><g clip-path="url(#06e4b03f71)"><path fill="#ff914d" d="M 0.972656 16.734375 C 0.964844 16.726562 0.957031 16.71875 0.949219 16.71875 C 0.820312 16.796875 1.320312 18.625 1.484375 18.675781 C 1.546875 18.632812 1.429688 18.121094 1.390625 17.960938 C 1.300781 17.578125 1.101562 16.902344 0.972656 16.734375 " fill-opacity="1" fill-rule="nonzero"/></g><path fill="#ff914d" d="M 2.253906 19.125 C 2.460938 19.238281 2.535156 18.910156 2.421875 18.390625 C 2.332031 17.976562 2.078125 17.339844 1.804688 17.214844 C 1.785156 17.210938 1.761719 17.207031 1.742188 17.210938 C 1.386719 17.289062 1.8125 18.878906 2.253906 19.125 " fill-opacity="1" fill-rule="nonzero"/><path fill="#ff914d" d="M 3.414062 20.765625 C 3.710938 20.914062 3.824219 20.589844 3.664062 20.070312 C 3.539062 19.679688 3.207031 19.078125 2.847656 18.976562 C 2.824219 18.976562 2.792969 18.972656 2.769531 18.976562 C 2.347656 19.078125 2.855469 20.480469 3.414062 20.765625 " fill-opacity="1" fill-rule="nonzero"/><path fill="#ff914d" d="M 4.820312 22.246094 C 5.207031 22.421875 5.371094 22.113281 5.160156 21.59375 C 5.011719 21.226562 4.613281 20.675781 4.191406 20.601562 C 4.15625 20.601562 4.101562 20.601562 4.054688 20.621094 C 3.660156 20.808594 4.207031 21.960938 4.820312 22.246094 " fill-opacity="1" fill-rule="nonzero"/><g clip-path="url(#dd92f804f8)"><path fill="#ff914d" d="M 1.351562 17.324219 C 1.496094 17.453125 1.5625 17.128906 1.5 16.601562 C 1.449219 16.1875 1.292969 15.539062 1.097656 15.394531 C 1.085938 15.390625 1.066406 15.382812 1.054688 15.386719 C 0.789062 15.433594 1.039062 17.046875 1.351562 17.324219 " fill-opacity="1" fill-rule="nonzero"/></g><path fill="#ff914d" d="M 2.851562 16.929688 C 2.808594 16.515625 2.589844 15.882812 2.242188 15.78125 C 2.214844 15.777344 2.183594 15.777344 2.160156 15.78125 C 1.730469 15.882812 1.910156 17.292969 2.398438 17.667969 C 2.699219 17.898438 2.917969 17.539062 2.851562 16.929688 " fill-opacity="1" fill-rule="nonzero"/><path fill="#ff914d" d="M 4.097656 18.617188 C 4.015625 18.203125 3.710938 17.582031 3.289062 17.507812 C 3.261719 17.507812 3.21875 17.503906 3.191406 17.511719 C 2.703125 17.640625 2.960938 18.9375 3.550781 19.339844 C 3.957031 19.617188 4.226562 19.257812 4.097656 18.617188 " fill-opacity="1" fill-rule="nonzero"/><path fill="#ff914d" d="M 5.59375 20.1875 C 5.480469 19.789062 5.109375 19.210938 4.632812 19.160156 C 4.601562 19.160156 4.554688 19.164062 4.523438 19.171875 C 3.988281 19.324219 4.339844 20.554688 5.015625 20.90625 C 5.472656 21.140625 5.761719 20.785156 5.59375 20.1875 " fill-opacity="1" fill-rule="nonzero"/><path fill="#ff914d" d="M 1.554688 15.917969 C 1.761719 16.097656 1.933594 15.753906 1.925781 15.183594 C 1.921875 14.773438 1.796875 14.132812 1.535156 14.011719 C 1.515625 14.007812 1.492188 14.003906 1.472656 14.007812 C 1.101562 14.085938 1.167969 15.585938 1.554688 15.917969 " fill-opacity="1" fill-rule="nonzero"/><path fill="#ff914d" d="M 3.566406 15.40625 C 3.558594 14.988281 3.367188 14.367188 2.96875 14.292969 C 2.957031 14.292969 2.933594 14.292969 2.917969 14.292969 C 2.390625 14.332031 2.332031 15.601562 2.835938 16.109375 C 3.199219 16.472656 3.582031 16.105469 3.566406 15.40625 " fill-opacity="1" fill-rule="nonzero"/><path fill="#ff914d" d="M 4.785156 17.046875 C 4.742188 16.625 4.46875 16.011719 4.003906 15.960938 C 3.988281 15.964844 3.964844 15.960938 3.945312 15.964844 C 3.347656 16.035156 3.394531 17.320312 4.015625 17.792969 C 4.457031 18.132812 4.859375 17.742188 4.785156 17.046875 " fill-opacity="1" fill-rule="nonzero"/><path fill="#ff914d" d="M 6.261719 18.621094 C 6.183594 18.203125 5.839844 17.601562 5.320312 17.578125 C 5.300781 17.578125 5.273438 17.578125 5.253906 17.582031 C 4.640625 17.679688 4.730469 18.871094 5.386719 19.351562 C 5.921875 19.742188 6.394531 19.34375 6.261719 18.621094 " fill-opacity="1" fill-rule="nonzero"/><path fill="#ff914d" d="M 2.011719 14.417969 C 2.277344 14.722656 2.59375 14.371094 2.644531 13.722656 C 2.675781 13.308594 2.574219 12.6875 2.253906 12.589844 C 2.242188 12.585938 2.226562 12.585938 2.214844 12.585938 C 1.769531 12.59375 1.621094 13.964844 2.011719 14.417969 " fill-opacity="1" fill-rule="nonzero"/><path fill="#ff914d" d="M 3.558594 14.558594 C 3.933594 14.980469 4.4375 14.597656 4.472656 13.863281 C 4.492188 13.449219 4.328125 12.839844 3.898438 12.789062 C 3.25 12.816406 3.113281 14.054688 3.558594 14.558594 " fill-opacity="1" fill-rule="nonzero"/><path fill="#ff914d" d="M 5.664062 15.445312 C 5.648438 15.023438 5.402344 14.421875 4.90625 14.394531 C 4.179688 14.457031 4.148438 15.707031 4.699219 16.191406 C 5.160156 16.597656 5.691406 16.183594 5.664062 15.445312 " fill-opacity="1" fill-rule="nonzero"/><path fill="#ff914d" d="M 6.035156 17.714844 C 6.585938 18.191406 7.199219 17.769531 7.109375 16.976562 C 7.0625 16.554688 6.746094 15.957031 6.191406 15.957031 C 5.4375 16.050781 5.445312 17.207031 6.035156 17.714844 " fill-opacity="1" fill-rule="nonzero"/><path fill="#ff914d" d="M 3.574219 12.246094 C 3.632812 11.839844 3.554688 11.230469 3.195312 11.160156 C 2.621094 11.152344 2.386719 12.476562 2.757812 12.9375 C 3.046875 13.296875 3.472656 12.9375 3.574219 12.246094 " fill-opacity="1" fill-rule="nonzero"/><path fill="#ff914d" d="M 8.246094 24.746094 C 8.695312 24.859375 8.875 24.574219 8.628906 24.136719 C 8.453125 23.824219 7.984375 23.378906 7.488281 23.363281 C 7.417969 23.367188 7.351562 23.371094 7.28125 23.417969 C 6.898438 23.6875 7.539062 24.566406 8.246094 24.746094 " fill-opacity="1" fill-rule="nonzero"/><path fill="#ff914d" d="M 9.070312 22.847656 C 8.929688 22.507812 8.484375 22.023438 7.929688 22.027344 C 7.878906 22.03125 7.808594 22.042969 7.742188 22.074219 C 7.242188 22.3125 7.636719 23.226562 8.367188 23.515625 C 8.929688 23.738281 9.292969 23.394531 9.070312 22.847656 " fill-opacity="1" fill-rule="nonzero"/><path fill="#ff914d" d="M 9.734375 21.394531 C 9.625 21.019531 9.199219 20.503906 8.601562 20.527344 C 8.578125 20.53125 8.550781 20.535156 8.527344 20.539062 C 7.867188 20.679688 7.988281 21.660156 8.71875 22.082031 C 9.363281 22.457031 9.9375 22.070312 9.734375 21.394531 " fill-opacity="1" fill-rule="nonzero"/><path fill="#ff914d" d="M 9.457031 18.875 C 9.433594 18.878906 9.402344 18.882812 9.378906 18.890625 C 8.667969 19.0625 8.707031 20.125 9.445312 20.5625 C 10.089844 20.945312 10.742188 20.5 10.589844 19.777344 C 10.503906 19.375 10.09375 18.828125 9.457031 18.875 " fill-opacity="1" fill-rule="nonzero"/><path fill="#ff914d" d="M 8.351562 25.785156 C 8.664062 25.824219 8.699219 25.589844 8.441406 25.25 C 8.226562 24.972656 7.730469 24.566406 7.300781 24.527344 C 7.242188 24.527344 7.183594 24.53125 7.132812 24.566406 C 6.828125 24.804688 7.726562 25.703125 8.351562 25.785156 " fill-opacity="1" fill-rule="nonzero"/><path fill="#ff914d" d="M 8.691406 26.632812 C 8.863281 26.628906 8.796875 26.453125 8.523438 26.191406 C 8.289062 25.964844 7.769531 25.582031 7.386719 25.523438 C 7.339844 25.519531 7.292969 25.519531 7.261719 25.546875 C 7.058594 25.742188 8.25 26.644531 8.691406 26.632812 " fill-opacity="1" fill-rule="nonzero"/><path fill="#ff914d" d="M 6.605469 22.3125 C 7.1875 22.597656 7.566406 22.222656 7.34375 21.578125 C 7.203125 21.175781 6.75 20.597656 6.183594 20.574219 C 6.144531 20.574219 6.089844 20.582031 6.050781 20.59375 C 5.453125 20.773438 5.824219 21.929688 6.605469 22.3125 " fill-opacity="1" fill-rule="nonzero"/><path fill="#ff914d" d="M 6.5 23.625 C 6.957031 23.78125 7.148438 23.449219 6.898438 22.933594 C 6.71875 22.5625 6.238281 22.023438 5.734375 21.972656 C 5.6875 21.976562 5.621094 21.976562 5.566406 22.003906 C 5.085938 22.230469 5.738281 23.363281 6.5 23.625 " fill-opacity="1" fill-rule="nonzero"/><g clip-path="url(#feea9a59bf)"><path fill="#ff914d" d="M 1.390625 13.425781 C 1.425781 12.984375 1.390625 12.292969 1.199219 12.144531 C 1.1875 12.140625 1.164062 12.132812 1.148438 12.136719 C 0.824219 12.191406 0.734375 13.917969 1.039062 14.210938 C 1.183594 14.351562 1.339844 13.996094 1.390625 13.425781 " fill-opacity="1" fill-rule="nonzero"/></g><g clip-path="url(#fcb0232a70)"><path fill="#ff914d" d="M 0.746094 13.46875 C 0.738281 13.464844 0.722656 13.453125 0.714844 13.453125 C 0.519531 13.476562 0.605469 15.355469 0.8125 15.570312 C 0.902344 15.660156 0.957031 15.324219 0.945312 14.789062 C 0.9375 14.34375 0.871094 13.640625 0.746094 13.46875 " fill-opacity="1" fill-rule="nonzero"/></g><path fill="#ff914d" d="M 7.945312 20.054688 C 7.847656 19.65625 7.457031 19.09375 6.886719 19.09375 C 6.847656 19.097656 6.789062 19.105469 6.75 19.117188 C 6.152344 19.316406 6.332031 20.378906 7.035156 20.792969 C 7.621094 21.132812 8.113281 20.734375 7.945312 20.054688 " fill-opacity="1" fill-rule="nonzero"/><path fill="#ff914d" d="M 7.6875 19.164062 C 8.300781 19.597656 8.9375 19.15625 8.804688 18.382812 C 8.730469 17.960938 8.359375 17.378906 7.757812 17.402344 C 7.734375 17.40625 7.703125 17.410156 7.683594 17.414062 C 7 17.5625 7.003906 18.675781 7.6875 19.164062 " fill-opacity="1" fill-rule="nonzero"/><path fill="#ff914d" d="M 6.585938 24.6875 C 6.878906 24.746094 6.914062 24.496094 6.660156 24.117188 C 6.457031 23.808594 5.988281 23.34375 5.585938 23.277344 C 5.53125 23.277344 5.476562 23.273438 5.429688 23.3125 C 5.15625 23.539062 6.019531 24.566406 6.585938 24.6875 " fill-opacity="1" fill-rule="nonzero"/><path fill="#ff914d" d="M 6.941406 25.625 C 7.09375 25.632812 7.019531 25.429688 6.761719 25.136719 C 6.515625 24.859375 6.023438 24.429688 5.695312 24.347656 C 5.652344 24.34375 5.609375 24.335938 5.585938 24.367188 C 5.429688 24.5625 6.558594 25.609375 6.941406 25.625 " fill-opacity="1" fill-rule="nonzero"/><g clip-path="url(#2b0d1df6f4)"><path fill="#ff914d" d="M 0.703125 11.695312 C 0.699219 11.691406 0.699219 11.6875 0.695312 11.683594 C 0.691406 11.683594 0.6875 11.683594 0.683594 11.683594 C 0.582031 11.855469 0.484375 13.421875 0.5625 13.609375 C 0.566406 13.609375 0.570312 13.609375 0.574219 13.609375 C 0.621094 13.527344 0.65625 13.136719 0.675781 12.914062 C 0.707031 12.535156 0.742188 11.867188 0.703125 11.695312 " fill-opacity="1" fill-rule="nonzero"/></g><g clip-path="url(#84f25a365a)"><path fill="#ff914d" d="M 1.113281 11.613281 C 1.1875 11.214844 1.253906 10.589844 1.15625 10.445312 C 1.148438 10.4375 1.136719 10.429688 1.125 10.433594 C 0.917969 10.457031 0.648438 12.128906 0.824219 12.316406 C 0.898438 12.398438 1.023438 12.09375 1.113281 11.613281 " fill-opacity="1" fill-rule="nonzero"/></g><path fill="#ff914d" d="M 1.824219 10.292969 C 1.9375 9.898438 2.027344 9.292969 1.878906 9.171875 C 1.871094 9.167969 1.863281 9.164062 1.855469 9.164062 C 1.570312 9.117188 1.140625 10.617188 1.34375 10.96875 C 1.445312 11.148438 1.667969 10.839844 1.824219 10.292969 " fill-opacity="1" fill-rule="nonzero"/><path fill="#ff914d" d="M 2.125 9.613281 C 2.246094 9.839844 2.554688 9.523438 2.769531 8.949219 C 2.910156 8.566406 3.023438 7.984375 2.832031 7.886719 C 2.472656 7.820312 1.902344 9.210938 2.125 9.613281 " fill-opacity="1" fill-rule="nonzero"/><path fill="#ff914d" d="M 2.070312 11.984375 C 2.144531 11.582031 2.140625 10.960938 1.910156 10.847656 C 1.898438 10.847656 1.886719 10.84375 1.878906 10.84375 C 1.503906 10.824219 1.230469 12.261719 1.527344 12.675781 C 1.703125 12.914062 1.964844 12.578125 2.070312 11.984375 " fill-opacity="1" fill-rule="nonzero"/><path fill="#ff914d" d="M 2.300781 11.234375 C 2.5 11.527344 2.867188 11.183594 3.027344 10.554688 C 3.128906 10.160156 3.144531 9.5625 2.863281 9.472656 C 2.367188 9.433594 2.019531 10.820312 2.300781 11.234375 " fill-opacity="1" fill-rule="nonzero"/><path fill="#ff914d" d="M 5.59375 12.1875 C 5.636719 11.777344 5.492188 11.191406 5.039062 11.164062 C 4.402344 11.222656 4.152344 12.363281 4.535156 12.867188 C 4.902344 13.359375 5.515625 12.964844 5.59375 12.1875 " fill-opacity="1" fill-rule="nonzero"/><path fill="#ff914d" d="M 6.757812 13.703125 C 6.765625 13.285156 6.539062 12.695312 6.019531 12.691406 C 5.292969 12.785156 5.140625 13.933594 5.636719 14.4375 C 6.097656 14.910156 6.746094 14.484375 6.757812 13.703125 " fill-opacity="1" fill-rule="nonzero"/><path fill="#ff914d" d="M 7.003906 15.96875 C 7.542969 16.417969 8.222656 15.960938 8.175781 15.175781 C 8.152344 14.753906 7.859375 14.171875 7.28125 14.191406 C 6.488281 14.316406 6.417969 15.476562 7.003906 15.96875 " fill-opacity="1" fill-rule="nonzero"/><path fill="#ff914d" d="M 8.78125 15.648438 C 7.992188 15.792969 7.9375 16.878906 8.519531 17.382812 C 9.125 17.90625 9.90625 17.433594 9.808594 16.605469 C 9.757812 16.179688 9.40625 15.605469 8.78125 15.648438 " fill-opacity="1" fill-rule="nonzero"/><path fill="#ff914d" d="M 4.359375 9.625 C 3.773438 9.652344 3.441406 10.859375 3.765625 11.328125 C 4.046875 11.742188 4.574219 11.371094 4.71875 10.652344 C 4.800781 10.253906 4.742188 9.667969 4.359375 9.625 " fill-opacity="1" fill-rule="nonzero"/><path fill="#ff914d" d="M 3.292969 9.769531 C 3.496094 10.113281 3.949219 9.765625 4.15625 9.109375 C 4.28125 8.722656 4.3125 8.148438 4.007812 8.085938 C 3.480469 8.085938 3.03125 9.339844 3.292969 9.769531 " fill-opacity="1" fill-rule="nonzero"/><path fill="#ff914d" d="M 4.820312 17.71875 L 4.8125 17.730469 L 4.816406 17.730469 Z M 4.820312 17.71875 " fill-opacity="1" fill-rule="nonzero"/><path fill="#ff914d" d="M 5.210938 19.308594 L 5.222656 19.320312 L 5.210938 19.308594 " fill-opacity="1" fill-rule="nonzero"/><path fill="#ff914d" d="M 10.140625 24.515625 C 10.71875 24.742188 11.121094 24.429688 10.894531 23.925781 C 10.757812 23.628906 10.328125 23.21875 9.789062 23.242188 C 9.734375 23.253906 9.664062 23.261719 9.597656 23.296875 C 9.148438 23.523438 9.472656 24.253906 10.140625 24.515625 " fill-opacity="1" fill-rule="nonzero"/><path fill="#ff914d" d="M 10.050781 25.6875 C 10.496094 25.773438 10.675781 25.507812 10.433594 25.132812 C 10.277344 24.890625 9.839844 24.503906 9.339844 24.511719 C 9.308594 24.511719 9.207031 24.519531 9.128906 24.574219 C 8.773438 24.832031 9.378906 25.558594 10.050781 25.6875 " fill-opacity="1" fill-rule="nonzero"/><path fill="#ff914d" d="M 7.867188 12.011719 C 7.886719 11.621094 7.691406 11.074219 7.1875 11.089844 C 6.574219 11.15625 6.273438 12.144531 6.707031 12.671875 C 7.121094 13.175781 7.824219 12.773438 7.867188 12.011719 " fill-opacity="1" fill-rule="nonzero"/><path fill="#ff914d" d="M 6.222656 9.644531 C 5.617188 9.726562 5.335938 10.753906 5.667969 11.210938 C 5.996094 11.660156 6.605469 11.308594 6.726562 10.601562 C 6.789062 10.210938 6.675781 9.65625 6.222656 9.644531 " fill-opacity="1" fill-rule="nonzero"/><g clip-path="url(#02610130e2)"><path fill="#ff914d" d="M 0.960938 10.429688 C 1.03125 10.394531 1.152344 10.015625 1.21875 9.792969 C 1.242188 9.703125 1.472656 8.929688 1.4375 8.742188 C 1.433594 8.734375 1.429688 8.726562 1.421875 8.726562 C 1.421875 8.726562 1.414062 8.726562 1.414062 8.730469 C 1.257812 8.835938 0.84375 10.390625 0.960938 10.429688 " fill-opacity="1" fill-rule="nonzero"/></g><path fill="#ff914d" d="M 11.546875 22.519531 C 11.4375 22.214844 11.0625 21.777344 10.472656 21.824219 C 10.429688 21.832031 10.367188 21.84375 10.324219 21.859375 C 9.773438 22.054688 9.933594 22.855469 10.589844 23.175781 C 11.15625 23.453125 11.769531 23.148438 11.546875 22.519531 " fill-opacity="1" fill-rule="nonzero"/><path fill="#ff914d" d="M 9.15625 27.261719 C 9.238281 27.25 9.054688 27.09375 8.855469 26.949219 C 8.628906 26.789062 8.121094 26.464844 7.824219 26.390625 C 7.789062 26.386719 7.757812 26.382812 7.75 26.402344 C 7.691406 26.542969 8.929688 27.300781 9.15625 27.261719 " fill-opacity="1" fill-rule="nonzero"/><path fill="#ff914d" d="M 10.117188 26.628906 C 10.429688 26.652344 10.472656 26.460938 10.21875 26.175781 C 10.054688 25.988281 9.617188 25.628906 9.148438 25.613281 C 9.085938 25.617188 9.027344 25.621094 8.976562 25.660156 C 8.691406 25.871094 9.535156 26.589844 10.117188 26.628906 " fill-opacity="1" fill-rule="nonzero"/><path fill="#ff914d" d="M 4.933594 9.738281 C 5.160156 10.070312 5.691406 9.816406 5.867188 9.140625 C 5.929688 8.894531 6 8.246094 5.5625 8.214844 C 5.011719 8.265625 4.65625 9.324219 4.933594 9.738281 " fill-opacity="1" fill-rule="nonzero"/><path fill="#ff914d" d="M 1.925781 8.566406 C 2.042969 8.28125 2.242188 7.703125 2.167969 7.566406 C 2.164062 7.5625 2.15625 7.558594 2.152344 7.558594 C 1.976562 7.496094 1.410156 8.914062 1.515625 9.152344 C 1.570312 9.269531 1.742188 9.023438 1.925781 8.566406 " fill-opacity="1" fill-rule="nonzero"/><path fill="#ff914d" d="M 8.433594 12.535156 C 7.683594 12.675781 7.617188 13.679688 8.03125 14.113281 C 8.476562 14.578125 9.261719 14.25 9.242188 13.425781 C 9.230469 12.882812 8.863281 12.484375 8.433594 12.535156 " fill-opacity="1" fill-rule="nonzero"/><path fill="#ff914d" d="M 11.519531 17.976562 C 11.453125 17.609375 11.128906 17.082031 10.492188 17.144531 C 9.742188 17.265625 9.730469 18.304688 10.3125 18.734375 C 10.867188 19.148438 11.65625 18.78125 11.519531 17.976562 " fill-opacity="1" fill-rule="nonzero"/><path fill="#ff914d" d="M 11.261719 21.644531 C 11.875 22.027344 12.550781 21.632812 12.394531 20.980469 C 12.28125 20.523438 11.789062 20.179688 11.339844 20.246094 C 11.316406 20.253906 11.285156 20.257812 11.261719 20.261719 C 10.640625 20.429688 10.640625 21.253906 11.261719 21.644531 " fill-opacity="1" fill-rule="nonzero"/><path fill="#ff914d" d="M 3.953125 6.65625 C 3.5625 6.632812 3.027344 7.796875 3.175781 8.136719 C 3.28125 8.386719 3.636719 8.109375 3.875 7.59375 C 4.023438 7.277344 4.171875 6.742188 3.953125 6.65625 " fill-opacity="1" fill-rule="nonzero"/><path fill="#ff914d" d="M 10.417969 27.386719 C 10.570312 27.371094 10.519531 27.230469 10.292969 27.039062 C 9.984375 26.78125 9.488281 26.546875 9.230469 26.535156 C 9.183594 26.539062 9.140625 26.539062 9.109375 26.566406 C 8.917969 26.746094 9.992188 27.421875 10.417969 27.386719 " fill-opacity="1" fill-rule="nonzero"/><path fill="#ff914d" d="M 5.222656 6.792969 C 4.785156 6.820312 4.289062 7.78125 4.488281 8.21875 C 4.648438 8.570312 5.125 8.242188 5.34375 7.640625 C 5.460938 7.3125 5.5 6.832031 5.222656 6.792969 " fill-opacity="1" fill-rule="nonzero"/><path fill="#ff914d" d="M 2.335938 7.878906 C 2.394531 8.03125 2.648438 7.757812 2.882812 7.292969 C 3.039062 6.984375 3.21875 6.480469 3.121094 6.386719 C 3.121094 6.386719 3.117188 6.386719 3.117188 6.386719 C 2.882812 6.296875 2.21875 7.5625 2.335938 7.878906 " fill-opacity="1" fill-rule="nonzero"/><path fill="#ff914d" d="M 9.914062 13.957031 C 9.242188 14.0625 9.050781 15.042969 9.609375 15.523438 C 10.15625 15.996094 10.894531 15.550781 10.828125 14.789062 C 10.792969 14.410156 10.488281 13.902344 9.914062 13.957031 " fill-opacity="1" fill-rule="nonzero"/><path fill="#ff914d" d="M 12.707031 24.902344 C 12.566406 24.5625 12.066406 24.285156 11.679688 24.332031 C 11.644531 24.339844 11.597656 24.347656 11.5625 24.359375 C 11.132812 24.515625 11.242188 25.09375 11.898438 25.371094 C 12.484375 25.621094 12.875 25.308594 12.707031 24.902344 " fill-opacity="1" fill-rule="nonzero"/><path fill="#ff914d" d="M 12.234375 26.019531 C 12.085938 25.792969 11.652344 25.496094 11.21875 25.515625 C 11.140625 25.523438 11.074219 25.546875 11.027344 25.582031 C 10.71875 25.804688 11.191406 26.347656 11.800781 26.476562 C 12.269531 26.574219 12.421875 26.304688 12.234375 26.019531 " fill-opacity="1" fill-rule="nonzero"/><path fill="#ff914d" d="M 8.386719 9.5 C 7.878906 9.566406 7.511719 10.429688 7.914062 10.921875 C 8.289062 11.378906 8.933594 11.019531 9 10.324219 C 9.03125 9.960938 8.839844 9.476562 8.386719 9.5 " fill-opacity="1" fill-rule="nonzero"/><path fill="#ff914d" d="M 7.894531 8.957031 C 7.976562 8.503906 7.757812 8.113281 7.441406 8.140625 C 6.914062 8.230469 6.578125 9.113281 6.910156 9.554688 C 7.226562 9.972656 7.792969 9.542969 7.894531 8.957031 " fill-opacity="1" fill-rule="nonzero"/><path fill="#ff914d" d="M 2.34375 6.921875 C 2.410156 6.800781 2.734375 6.1875 2.722656 6.03125 C 2.722656 6.03125 2.722656 6.023438 2.71875 6.023438 C 2.617188 5.949219 1.929688 7.253906 1.984375 7.421875 C 2.003906 7.484375 2.144531 7.296875 2.34375 6.921875 " fill-opacity="1" fill-rule="nonzero"/><path fill="#ff914d" d="M 6.179688 8.136719 C 6.378906 8.484375 6.914062 8.21875 7.078125 7.558594 C 7.15625 7.261719 7.144531 6.8125 6.804688 6.808594 C 6.3125 6.875 5.960938 7.757812 6.179688 8.136719 " fill-opacity="1" fill-rule="nonzero"/><path fill="#ff914d" d="M 9.609375 10.867188 C 9.015625 10.960938 8.78125 11.882812 9.234375 12.320312 C 9.679688 12.742188 10.367188 12.324219 10.347656 11.636719 C 10.34375 11.316406 10.132812 10.820312 9.609375 10.867188 " fill-opacity="1" fill-rule="nonzero"/><path fill="#ff914d" d="M 13.351562 23.546875 C 13.210938 23.179688 12.773438 22.933594 12.371094 22.992188 C 12.332031 23 12.28125 23.011719 12.242188 23.023438 C 11.742188 23.203125 11.851562 23.855469 12.429688 24.132812 C 13.007812 24.40625 13.550781 24.0625 13.351562 23.546875 " fill-opacity="1" fill-rule="nonzero"/><path fill="#ff914d" d="M 12.003906 26.960938 C 11.757812 26.707031 11.316406 26.511719 11.019531 26.53125 C 10.96875 26.535156 10.886719 26.542969 10.839844 26.59375 C 10.644531 26.800781 11.378906 27.320312 11.890625 27.335938 C 12.171875 27.34375 12.222656 27.1875 12.003906 26.960938 " fill-opacity="1" fill-rule="nonzero"/><path fill="#ff914d" d="M 5.191406 5.433594 C 4.867188 5.402344 4.261719 6.371094 4.382812 6.726562 C 4.464844 6.976562 4.839844 6.773438 5.125 6.214844 C 5.25 5.964844 5.425781 5.484375 5.191406 5.433594 " fill-opacity="1" fill-rule="nonzero"/><path fill="#ff914d" d="M 10.886719 27.957031 C 10.957031 27.941406 10.851562 27.847656 10.597656 27.699219 C 10.535156 27.664062 9.976562 27.347656 9.625 27.296875 C 9.585938 27.296875 9.550781 27.292969 9.539062 27.3125 C 9.460938 27.429688 10.65625 28.003906 10.886719 27.957031 " fill-opacity="1" fill-rule="nonzero"/><path fill="#ff914d" d="M 14.210938 22.089844 C 14.140625 21.804688 13.824219 21.40625 13.246094 21.484375 C 13.246094 21.484375 13.242188 21.484375 13.242188 21.484375 C 13.152344 21.503906 12.96875 21.546875 12.84375 21.714844 C 12.542969 22.121094 12.949219 22.898438 13.730469 22.792969 C 13.730469 22.792969 13.734375 22.792969 13.734375 22.792969 C 14.332031 22.65625 14.226562 22.144531 14.210938 22.089844 " fill-opacity="1" fill-rule="nonzero"/><path fill="#ff914d" d="M 13.351562 19.285156 C 13.292969 18.960938 12.972656 18.46875 12.347656 18.542969 C 11.617188 18.714844 11.621094 19.605469 12.191406 19.980469 C 12.773438 20.363281 13.464844 19.949219 13.351562 19.285156 " fill-opacity="1" fill-rule="nonzero"/><path fill="#ff914d" d="M 11.605469 15.359375 C 10.933594 15.484375 10.789062 16.453125 11.382812 16.882812 C 11.945312 17.292969 12.660156 16.828125 12.550781 16.117188 C 12.492188 15.699219 12.136719 15.292969 11.605469 15.359375 " fill-opacity="1" fill-rule="nonzero"/><path fill="#ff914d" d="M 1.625 8.054688 C 1.722656 7.816406 1.957031 7.253906 1.984375 7.113281 C 1.984375 7.109375 1.984375 7.105469 1.984375 7.101562 C 1.984375 7.101562 1.980469 7.101562 1.976562 7.101562 C 1.878906 7.222656 1.339844 8.507812 1.382812 8.585938 C 1.398438 8.566406 1.429688 8.519531 1.625 8.054688 " fill-opacity="1" fill-rule="nonzero"/><path fill="#ff914d" d="M 9.472656 27.539062 C 8.832031 27.203125 8.652344 27.125 8.558594 27.089844 C 8.558594 27.089844 8.554688 27.089844 8.554688 27.089844 C 8.546875 27.085938 8.535156 27.082031 8.523438 27.082031 C 8.523438 27.085938 8.523438 27.085938 8.523438 27.089844 C 8.65625 27.214844 9.773438 27.757812 9.90625 27.777344 C 9.902344 27.765625 9.898438 27.757812 9.472656 27.539062 " fill-opacity="1" fill-rule="nonzero"/><path fill="#ff914d" d="M 3.382812 6.5625 C 3.429688 6.730469 3.691406 6.566406 3.992188 6.0625 C 4.007812 6.035156 4.410156 5.355469 4.238281 5.25 C 3.9375 5.203125 3.308594 6.296875 3.382812 6.5625 " fill-opacity="1" fill-rule="nonzero"/><path fill="#ff914d" d="M 12.121094 27.992188 C 12.132812 27.992188 12.144531 27.992188 12.15625 27.992188 C 12.296875 27.972656 12.257812 27.867188 12.054688 27.722656 C 11.769531 27.515625 11.335938 27.351562 11.09375 27.355469 C 11.050781 27.359375 11.003906 27.359375 10.976562 27.382812 C 10.820312 27.511719 11.609375 27.984375 12.121094 27.992188 " fill-opacity="1" fill-rule="nonzero"/><path fill="#ff914d" d="M 6.484375 5.492188 C 6.433594 5.496094 6.363281 5.503906 6.238281 5.605469 C 5.789062 5.96875 5.539062 6.832031 5.960938 6.863281 C 6.3125 6.828125 6.539062 6.308594 6.5625 6.25 C 6.71875 5.882812 6.722656 5.492188 6.484375 5.492188 " fill-opacity="1" fill-rule="nonzero"/><path fill="#ff914d" d="M 3.679688 4.949219 C 3.566406 4.925781 2.730469 6.035156 2.84375 6.261719 C 2.941406 6.316406 3.277344 5.804688 3.316406 5.746094 C 3.4375 5.558594 3.738281 5.058594 3.6875 4.957031 C 3.6875 4.957031 3.683594 4.953125 3.679688 4.949219 " fill-opacity="1" fill-rule="nonzero"/><path fill="#ff914d" d="M 11.082031 12.222656 C 10.363281 12.390625 10.347656 13.296875 10.773438 13.65625 C 11.21875 14.03125 11.960938 13.691406 11.910156 12.972656 C 11.875 12.484375 11.503906 12.148438 11.082031 12.222656 " fill-opacity="1" fill-rule="nonzero"/><path fill="#ff914d" d="M 12.757812 13.550781 C 12.160156 13.707031 11.984375 14.476562 12.453125 14.902344 C 12.992188 15.390625 13.6875 14.902344 13.632812 14.265625 C 13.605469 13.917969 13.28125 13.476562 12.757812 13.550781 " fill-opacity="1" fill-rule="nonzero"/><path fill="#ff914d" d="M 14.390625 17.441406 C 14.328125 16.984375 13.867188 16.636719 13.441406 16.71875 C 12.824219 16.882812 12.679688 17.683594 13.1875 18.101562 C 13.785156 18.597656 14.480469 18.097656 14.390625 17.441406 " fill-opacity="1" fill-rule="nonzero"/><path fill="#ff914d" d="M 15.191406 20.429688 C 15.117188 20.039062 14.660156 19.742188 14.257812 19.820312 C 13.652344 19.980469 13.535156 20.695312 14.054688 21.054688 C 14.648438 21.464844 15.296875 21.003906 15.191406 20.429688 " fill-opacity="1" fill-rule="nonzero"/><path fill="#ff914d" d="M 4.605469 5.285156 C 4.636719 5.496094 4.980469 5.21875 5.242188 4.839844 C 5.429688 4.570312 5.621094 4.164062 5.492188 4.113281 C 5.214844 4.105469 4.5625 4.96875 4.605469 5.285156 " fill-opacity="1" fill-rule="nonzero"/><path fill="#ff914d" d="M 14.433594 25.71875 C 14.324219 25.445312 13.882812 25.222656 13.542969 25.273438 C 13.511719 25.28125 13.46875 25.289062 13.4375 25.300781 C 13.082031 25.433594 13.128906 25.875 13.648438 26.101562 C 14.179688 26.335938 14.574219 26.066406 14.433594 25.71875 " fill-opacity="1" fill-rule="nonzero"/><path fill="#ff914d" d="M 10.296875 27.878906 C 10.289062 27.875 10.277344 27.875 10.265625 27.875 C 10.265625 27.875 10.265625 27.878906 10.261719 27.882812 C 10.375 27.996094 11.363281 28.339844 11.585938 28.375 C 11.589844 28.371094 11.59375 28.371094 11.59375 28.367188 C 11.558594 28.34375 11.425781 28.289062 11.203125 28.199219 C 11.136719 28.171875 10.519531 27.929688 10.296875 27.878906 " fill-opacity="1" fill-rule="nonzero"/><path fill="#ff914d" d="M 5.703125 5.371094 C 5.777344 5.601562 6.140625 5.363281 6.398438 4.910156 C 6.539062 4.664062 6.6875 4.261719 6.488281 4.226562 C 6.160156 4.25 5.605469 5.0625 5.703125 5.371094 " fill-opacity="1" fill-rule="nonzero"/><path fill="#ff914d" d="M 12.617188 28.460938 C 12.671875 28.429688 12.4375 28.316406 12.363281 28.285156 C 12.082031 28.152344 11.652344 28.007812 11.453125 28 C 11.421875 28 11.390625 28 11.378906 28.015625 C 11.308594 28.132812 12.464844 28.550781 12.617188 28.460938 " fill-opacity="1" fill-rule="nonzero"/><path fill="#ff914d" d="M 9.566406 7.941406 C 9.066406 8.050781 8.816406 8.820312 9.15625 9.203125 C 9.488281 9.578125 10.070312 9.230469 10.113281 8.632812 C 10.140625 8.226562 9.878906 7.894531 9.566406 7.941406 " fill-opacity="1" fill-rule="nonzero"/><path fill="#ff914d" d="M 8.640625 6.675781 C 8.195312 6.765625 7.894531 7.496094 8.148438 7.878906 C 8.394531 8.257812 8.9375 7.945312 9.039062 7.367188 C 9.109375 6.972656 8.917969 6.644531 8.640625 6.675781 " fill-opacity="1" fill-rule="nonzero"/><path fill="#ff914d" d="M 13.503906 27.117188 C 13.941406 27.207031 14.113281 26.988281 13.949219 26.742188 C 13.789062 26.507812 13.371094 26.328125 13.070312 26.367188 C 13.011719 26.375 12.957031 26.386719 12.902344 26.421875 C 12.636719 26.605469 12.984375 27.007812 13.503906 27.117188 " fill-opacity="1" fill-rule="nonzero"/><path fill="#ff914d" d="M 3.914062 5.058594 C 3.933594 5.175781 4.164062 4.984375 4.441406 4.625 C 4.449219 4.617188 4.914062 4.011719 4.824219 3.914062 C 4.640625 3.863281 3.875 4.828125 3.914062 5.058594 " fill-opacity="1" fill-rule="nonzero"/><path fill="#ff914d" d="M 13.597656 27.882812 C 13.84375 27.878906 13.890625 27.753906 13.703125 27.582031 C 13.558594 27.445312 13.210938 27.253906 12.855469 27.273438 C 12.8125 27.277344 12.734375 27.289062 12.695312 27.332031 C 12.519531 27.507812 13.140625 27.886719 13.597656 27.882812 " fill-opacity="1" fill-rule="nonzero"/><path fill="#ff914d" d="M 8.023438 5.441406 C 7.636719 5.480469 7.261719 6.257812 7.46875 6.59375 C 7.636719 6.875 8.101562 6.636719 8.253906 6.09375 C 8.328125 5.828125 8.328125 5.433594 8.023438 5.441406 " fill-opacity="1" fill-rule="nonzero"/><path fill="#ff914d" d="M 10.773438 9.226562 C 10.25 9.320312 10.039062 10.117188 10.433594 10.496094 C 10.792969 10.84375 11.449219 10.539062 11.433594 9.890625 C 11.421875 9.589844 11.242188 9.167969 10.773438 9.226562 " fill-opacity="1" fill-rule="nonzero"/><path fill="#ff914d" d="M 15.105469 24.460938 C 15.03125 24.253906 14.734375 23.949219 14.246094 24.011719 C 14.210938 24.019531 14.160156 24.03125 14.105469 24.054688 C 13.699219 24.226562 13.777344 24.742188 14.246094 24.960938 C 14.742188 25.1875 15.257812 24.890625 15.105469 24.460938 " fill-opacity="1" fill-rule="nonzero"/><path fill="#ff914d" d="M 3.050781 5.351562 C 3.25 5.066406 3.492188 4.699219 3.523438 4.589844 C 3.523438 4.589844 3.523438 4.582031 3.519531 4.582031 C 3.40625 4.621094 2.707031 5.667969 2.734375 5.761719 C 2.75 5.757812 2.785156 5.746094 3.050781 5.351562 " fill-opacity="1" fill-rule="nonzero"/><path fill="#ff914d" d="M 4.03125 4.308594 C 4.035156 4.304688 4.511719 3.730469 4.511719 3.621094 C 4.507812 3.621094 4.507812 3.617188 4.507812 3.617188 C 4.371094 3.609375 3.558594 4.617188 3.628906 4.703125 C 3.6875 4.710938 3.90625 4.460938 4.03125 4.308594 " fill-opacity="1" fill-rule="nonzero"/><path fill="#ff914d" d="M 12.113281 28.464844 C 12.082031 28.460938 12.082031 28.460938 12.070312 28.46875 C 12.144531 28.542969 13.1875 28.800781 13.285156 28.769531 C 13.269531 28.761719 13.25 28.75 12.953125 28.667969 C 12.53125 28.550781 12.246094 28.480469 12.113281 28.464844 " fill-opacity="1" fill-rule="nonzero"/><path fill="#ff914d" d="M 14.582031 14.871094 C 14.011719 15.003906 13.863281 15.773438 14.335938 16.160156 C 14.84375 16.574219 15.535156 16.164062 15.445312 15.503906 C 15.398438 15.1875 15.101562 14.78125 14.582031 14.871094 " fill-opacity="1" fill-rule="nonzero"/><path fill="#ff914d" d="M 15.527344 23.675781 C 15.53125 23.675781 15.53125 23.675781 15.53125 23.675781 C 16.066406 23.542969 15.980469 23.113281 15.96875 23.0625 C 15.914062 22.824219 15.644531 22.5 15.132812 22.582031 C 14.929688 22.625 14.820312 22.730469 14.773438 22.792969 C 14.480469 23.171875 14.886719 23.773438 15.527344 23.675781 " fill-opacity="1" fill-rule="nonzero"/><path fill="#ff914d" d="M 7.730469 4.234375 C 7.417969 4.257812 6.984375 4.960938 7.089844 5.277344 C 7.175781 5.542969 7.578125 5.355469 7.792969 4.847656 C 7.894531 4.613281 7.964844 4.242188 7.730469 4.234375 " fill-opacity="1" fill-rule="nonzero"/><path fill="#ff914d" d="M 5.164062 3.894531 C 5.160156 4.027344 5.417969 3.847656 5.71875 3.507812 C 5.875 3.332031 6.167969 2.953125 6.09375 2.898438 C 5.902344 2.875 5.171875 3.660156 5.164062 3.894531 " fill-opacity="1" fill-rule="nonzero"/><path fill="#ff914d" d="M 13.851562 28.425781 C 13.941406 28.398438 13.886719 28.316406 13.714844 28.21875 C 13.566406 28.136719 13.214844 27.980469 12.914062 27.988281 C 12.878906 27.992188 12.820312 27.996094 12.796875 28.027344 C 12.699219 28.179688 13.574219 28.507812 13.851562 28.425781 " fill-opacity="1" fill-rule="nonzero"/><path fill="#ff914d" d="M 12.226562 10.5 C 12.226562 10.5 12.226562 10.5 12.222656 10.5 C 11.585938 10.671875 11.589844 11.484375 11.980469 11.78125 C 12.417969 12.121094 13.019531 11.726562 12.96875 11.136719 C 12.945312 10.851562 12.722656 10.425781 12.226562 10.5 " fill-opacity="1" fill-rule="nonzero"/><path fill="#ff914d" d="M 11.410156 28.34375 L 11.449219 28.355469 C 11.421875 28.347656 11.390625 28.335938 11.359375 28.328125 L 11.410156 28.34375 " fill-opacity="1" fill-rule="nonzero"/><path fill="#ff914d" d="M 16.230469 18.628906 C 16.15625 18.226562 15.757812 17.960938 15.359375 18.046875 C 14.71875 18.226562 14.691406 18.996094 15.171875 19.308594 C 15.691406 19.644531 16.34375 19.222656 16.230469 18.628906 " fill-opacity="1" fill-rule="nonzero"/><path fill="#ff914d" d="M 5.957031 4.046875 C 5.992188 4.203125 6.296875 3.996094 6.578125 3.625 C 6.710938 3.445312 6.941406 3.070312 6.804688 3.035156 C 6.59375 3.015625 5.902344 3.769531 5.957031 4.046875 " fill-opacity="1" fill-rule="nonzero"/><path fill="#ff914d" d="M 16.972656 21.5 C 16.9375 21.199219 16.59375 20.910156 16.15625 20.984375 C 15.652344 21.125 15.507812 21.683594 15.894531 21.996094 C 16.386719 22.390625 17.03125 22.003906 16.972656 21.5 " fill-opacity="1" fill-rule="nonzero"/><path fill="#ff914d" d="M 14.253906 28.792969 C 14.296875 28.769531 14.105469 28.703125 14.046875 28.683594 C 13.804688 28.597656 13.421875 28.507812 13.253906 28.507812 C 13.230469 28.507812 13.191406 28.511719 13.191406 28.53125 C 13.191406 28.625 14.132812 28.859375 14.253906 28.792969 " fill-opacity="1" fill-rule="nonzero"/><path fill="#ff914d" d="M 13.894531 11.753906 C 13.894531 11.753906 13.890625 11.753906 13.890625 11.753906 C 13.335938 11.917969 13.21875 12.679688 13.699219 13.011719 C 14.203125 13.359375 14.757812 12.882812 14.675781 12.339844 C 14.636719 12.046875 14.339844 11.683594 13.894531 11.753906 " fill-opacity="1" fill-rule="nonzero"/><path fill="#ff914d" d="M 7.058594 4.050781 C 7.113281 4.234375 7.4375 4.019531 7.667969 3.644531 C 7.773438 3.46875 7.9375 3.105469 7.765625 3.082031 C 7.480469 3.117188 6.984375 3.796875 7.058594 4.050781 " fill-opacity="1" fill-rule="nonzero"/><path fill="#ff914d" d="M 4.742188 3.644531 C 4.8125 3.675781 5.125 3.355469 5.222656 3.257812 C 5.242188 3.238281 5.691406 2.769531 5.671875 2.691406 C 5.667969 2.6875 5.664062 2.6875 5.664062 2.6875 C 5.570312 2.671875 4.679688 3.484375 4.742188 3.644531 " fill-opacity="1" fill-rule="nonzero"/><path fill="#ff914d" d="M 16.023438 26.382812 C 15.953125 26.226562 15.683594 26.023438 15.3125 26.074219 C 15.261719 26.085938 15.207031 26.101562 15.167969 26.125 C 14.894531 26.273438 15.015625 26.605469 15.390625 26.738281 C 15.792969 26.878906 16.160156 26.675781 16.023438 26.382812 " fill-opacity="1" fill-rule="nonzero"/><path fill="#ff914d" d="M 10.347656 7.503906 C 10.640625 7.820312 11.140625 7.492188 11.144531 6.980469 C 11.148438 6.734375 11 6.402344 10.671875 6.441406 C 10.265625 6.515625 10.0625 7.191406 10.347656 7.503906 " fill-opacity="1" fill-rule="nonzero"/><path fill="#ff914d" d="M 15.125 27.625 C 15.46875 27.6875 15.675781 27.539062 15.535156 27.332031 C 15.414062 27.148438 15.082031 27.023438 14.824219 27.0625 C 14.78125 27.070312 14.710938 27.082031 14.660156 27.125 C 14.472656 27.273438 14.734375 27.550781 15.125 27.625 " fill-opacity="1" fill-rule="nonzero"/><path fill="#ff914d" d="M 9.765625 5.28125 C 9.359375 5.371094 9.164062 6.050781 9.390625 6.308594 C 9.601562 6.550781 10.039062 6.3125 10.105469 5.820312 C 10.144531 5.53125 10.023438 5.246094 9.765625 5.28125 " fill-opacity="1" fill-rule="nonzero"/><path fill="#ff914d" d="M 16.730469 25.238281 C 16.671875 25.066406 16.4375 24.839844 16.03125 24.90625 C 16.011719 24.910156 15.96875 24.921875 15.96875 24.921875 C 15.554688 25.046875 15.601562 25.46875 15.945312 25.648438 C 16.363281 25.867188 16.855469 25.609375 16.730469 25.238281 " fill-opacity="1" fill-rule="nonzero"/><path fill="#ff914d" d="M 9.171875 4.148438 C 8.859375 4.1875 8.550781 4.824219 8.714844 5.09375 C 8.851562 5.320312 9.234375 5.125 9.359375 4.679688 C 9.421875 4.457031 9.425781 4.132812 9.171875 4.148438 " fill-opacity="1" fill-rule="nonzero"/><path fill="#ff914d" d="M 11.863281 7.628906 C 11.34375 7.765625 11.316406 8.457031 11.617188 8.714844 C 11.925781 8.984375 12.460938 8.714844 12.433594 8.183594 C 12.417969 7.820312 12.164062 7.570312 11.863281 7.628906 " fill-opacity="1" fill-rule="nonzero"/><path fill="#ff914d" d="M 15.183594 28.28125 C 15.378906 28.265625 15.417969 28.175781 15.277344 28.058594 C 15.128906 27.933594 14.832031 27.824219 14.589844 27.851562 C 14.554688 27.859375 14.492188 27.871094 14.457031 27.902344 C 14.3125 28.039062 14.820312 28.300781 15.183594 28.28125 " fill-opacity="1" fill-rule="nonzero"/><path fill="#ff914d" d="M 15.386719 28.710938 C 15.457031 28.691406 15.417969 28.640625 15.289062 28.582031 C 15.148438 28.515625 14.859375 28.425781 14.628906 28.441406 C 14.59375 28.445312 14.550781 28.453125 14.535156 28.472656 C 14.46875 28.578125 15.175781 28.777344 15.386719 28.710938 " fill-opacity="1" fill-rule="nonzero"/><path fill="#ff914d" d="M 7.355469 2.851562 C 7.378906 2.964844 7.636719 2.792969 7.878906 2.503906 C 8.070312 2.273438 8.214844 2.023438 8.117188 2.011719 C 7.890625 2.035156 7.3125 2.667969 7.355469 2.851562 " fill-opacity="1" fill-rule="nonzero"/><path fill="#ff914d" d="M 13.898438 28.839844 C 13.871094 28.839844 13.871094 28.839844 13.863281 28.847656 C 13.933594 28.890625 14.828125 29.007812 14.894531 28.984375 C 14.871094 28.976562 14.839844 28.972656 14.601562 28.9375 C 14.226562 28.878906 14.019531 28.847656 13.898438 28.839844 " fill-opacity="1" fill-rule="nonzero"/><path fill="#ff914d" d="M 8.945312 3.546875 C 9.054688 3.300781 9.066406 3.039062 8.90625 3.050781 C 8.625 3.101562 8.273438 3.691406 8.382812 3.925781 C 8.472656 4.117188 8.785156 3.90625 8.945312 3.546875 " fill-opacity="1" fill-rule="nonzero"/><path fill="#ff914d" d="M 6.027344 2.601562 C 6.015625 2.679688 6.222656 2.542969 6.515625 2.285156 C 6.519531 2.28125 7 1.851562 6.964844 1.792969 C 6.835938 1.769531 6.054688 2.441406 6.027344 2.601562 " fill-opacity="1" fill-rule="nonzero"/><path fill="#ff914d" d="M 16.5 16.171875 C 15.894531 16.355469 15.917969 17.058594 16.277344 17.347656 C 16.695312 17.683594 17.382812 17.375 17.296875 16.742188 C 17.238281 16.335938 16.878906 16.078125 16.5 16.171875 " fill-opacity="1" fill-rule="nonzero"/><path fill="#ff914d" d="M 7.425781 1.9375 C 7.238281 1.933594 6.527344 2.609375 6.542969 2.777344 C 6.550781 2.867188 6.757812 2.757812 7.082031 2.425781 C 7.101562 2.40625 7.515625 1.984375 7.425781 1.9375 " fill-opacity="1" fill-rule="nonzero"/><path fill="#ff914d" d="M 17.277344 19.269531 C 16.730469 19.40625 16.664062 20.050781 17.050781 20.324219 C 17.484375 20.632812 18.105469 20.265625 18.03125 19.753906 C 18 19.511719 17.761719 19.167969 17.277344 19.269531 " fill-opacity="1" fill-rule="nonzero"/><path fill="#ff914d" d="M 4.527344 3.269531 C 4.527344 3.265625 4.527344 3.261719 4.527344 3.257812 C 4.441406 3.296875 3.734375 4.132812 3.730469 4.199219 C 3.753906 4.1875 3.804688 4.132812 4.035156 3.863281 C 4.414062 3.417969 4.496094 3.316406 4.527344 3.269531 " fill-opacity="1" fill-rule="nonzero"/><path fill="#ff914d" d="M 15.710938 13.019531 C 15.101562 13.203125 15.152344 13.933594 15.546875 14.195312 C 16 14.5 16.570312 14.113281 16.480469 13.5625 C 16.417969 13.179688 16.066406 12.929688 15.710938 13.019531 " fill-opacity="1" fill-rule="nonzero"/><path fill="#ff914d" d="M 13.308594 8.8125 C 12.796875 8.960938 12.753906 9.636719 13.125 9.90625 C 13.515625 10.191406 14.027344 9.828125 13.953125 9.320312 C 13.917969 9.089844 13.714844 8.746094 13.308594 8.8125 " fill-opacity="1" fill-rule="nonzero"/><path fill="#ff914d" d="M 17.617188 23.921875 C 17.570312 23.691406 17.3125 23.484375 16.929688 23.554688 C 16.460938 23.664062 16.410156 24.128906 16.734375 24.351562 C 17.125 24.621094 17.703125 24.339844 17.617188 23.921875 " fill-opacity="1" fill-rule="nonzero"/><path fill="#ff914d" d="M 5.039062 2.945312 C 5.042969 2.9375 5.511719 2.488281 5.539062 2.410156 C 5.539062 2.410156 5.539062 2.410156 5.539062 2.40625 C 5.4375 2.402344 4.644531 3.179688 4.664062 3.261719 C 4.699219 3.265625 4.914062 3.0625 5.039062 2.945312 " fill-opacity="1" fill-rule="nonzero"/><path fill="#ff914d" d="M 14.832031 11.0625 C 15.269531 11.351562 15.726562 10.9375 15.644531 10.480469 C 15.601562 10.242188 15.355469 9.921875 14.960938 9.996094 C 14.535156 10.105469 14.386719 10.769531 14.832031 11.0625 " fill-opacity="1" fill-rule="nonzero"/><path fill="#ff914d" d="M 18.632812 22.417969 C 18.601562 22.179688 18.34375 21.964844 17.976562 22.035156 C 17.582031 22.136719 17.378906 22.613281 17.734375 22.878906 C 18.140625 23.183594 18.6875 22.832031 18.632812 22.417969 " fill-opacity="1" fill-rule="nonzero"/><path fill="#ff914d" d="M 14.960938 28.828125 C 14.921875 28.832031 14.910156 28.835938 14.90625 28.84375 C 14.945312 28.917969 15.667969 28.996094 15.757812 28.960938 C 15.757812 28.957031 15.757812 28.957031 15.757812 28.953125 C 15.753906 28.949219 15.730469 28.933594 15.554688 28.898438 C 15.488281 28.886719 15.152344 28.820312 14.960938 28.828125 " fill-opacity="1" fill-rule="nonzero"/><path fill="#ff914d" d="M 8.378906 2.78125 C 8.40625 2.925781 8.652344 2.796875 8.867188 2.460938 C 9.007812 2.246094 9.085938 2.019531 8.96875 2.023438 C 8.761719 2.054688 8.347656 2.585938 8.378906 2.78125 " fill-opacity="1" fill-rule="nonzero"/><path fill="#ff914d" d="M 6.226562 2.058594 C 6.40625 1.910156 6.710938 1.660156 6.722656 1.601562 C 6.667969 1.554688 5.84375 2.222656 5.832031 2.324219 C 5.839844 2.332031 5.863281 2.351562 6.226562 2.058594 " fill-opacity="1" fill-rule="nonzero"/><path fill="#ff914d" d="M 11.445312 5.871094 C 11.667969 6.085938 12.0625 5.871094 12.050781 5.449219 C 12.042969 5.28125 11.957031 4.980469 11.660156 5.023438 C 11.316406 5.09375 11.222656 5.65625 11.445312 5.871094 " fill-opacity="1" fill-rule="nonzero"/><path fill="#ff914d" d="M 16.929688 26.738281 C 16.90625 26.746094 16.875 26.753906 16.855469 26.761719 C 16.585938 26.855469 16.644531 27.105469 16.886719 27.210938 C 17.15625 27.335938 17.546875 27.207031 17.457031 26.960938 C 17.414062 26.84375 17.238281 26.6875 16.929688 26.738281 " fill-opacity="1" fill-rule="nonzero"/><path fill="#ff914d" d="M 11.050781 4.386719 C 11.074219 4.152344 10.976562 3.929688 10.773438 3.964844 C 10.457031 4.042969 10.324219 4.566406 10.503906 4.769531 C 10.671875 4.964844 11.007812 4.777344 11.050781 4.386719 " fill-opacity="1" fill-rule="nonzero"/><path fill="#ff914d" d="M 16.574219 28 C 16.828125 28.046875 17.054688 27.949219 16.945312 27.785156 C 16.855469 27.648438 16.625 27.574219 16.417969 27.609375 C 16.382812 27.617188 16.328125 27.628906 16.285156 27.660156 C 16.140625 27.761719 16.300781 27.949219 16.574219 28 " fill-opacity="1" fill-rule="nonzero"/><path fill="#ff914d" d="M 18.1875 25.914062 C 18.152344 25.78125 17.988281 25.609375 17.660156 25.671875 C 17.273438 25.773438 17.292969 26.09375 17.523438 26.226562 C 17.828125 26.40625 18.257812 26.203125 18.1875 25.914062 " fill-opacity="1" fill-rule="nonzero"/><path fill="#ff914d" d="M 17.628906 14.265625 C 17.097656 14.414062 17.121094 15.070312 17.453125 15.316406 C 17.832031 15.597656 18.433594 15.28125 18.328125 14.730469 C 18.289062 14.523438 18.089844 14.160156 17.628906 14.265625 " fill-opacity="1" fill-rule="nonzero"/><path fill="#ff914d" d="M 8.769531 1.046875 C 8.609375 1.054688 7.984375 1.582031 7.984375 1.710938 C 7.984375 1.777344 8.152344 1.691406 8.4375 1.4375 C 8.441406 1.433594 8.84375 1.070312 8.769531 1.046875 " fill-opacity="1" fill-rule="nonzero"/><path fill="#ff914d" d="M 7.449219 1.613281 C 7.445312 1.667969 7.625 1.5625 7.898438 1.351562 C 7.941406 1.320312 8.324219 1.023438 8.332031 0.964844 C 8.328125 0.960938 8.328125 0.960938 8.328125 0.960938 C 8.207031 0.953125 7.460938 1.507812 7.449219 1.613281 " fill-opacity="1" fill-rule="nonzero"/><path fill="#ff914d" d="M 18.230469 18.445312 C 18.589844 18.710938 19.191406 18.417969 19.117188 17.890625 C 19.089844 17.683594 18.90625 17.324219 18.433594 17.429688 C 17.855469 17.621094 17.941406 18.234375 18.230469 18.445312 " fill-opacity="1" fill-rule="nonzero"/><path fill="#ff914d" d="M 12.679688 6.972656 C 12.972656 7.214844 13.371094 6.925781 13.316406 6.511719 C 13.292969 6.328125 13.140625 6.050781 12.835938 6.101562 C 12.492188 6.179688 12.390625 6.734375 12.679688 6.972656 " fill-opacity="1" fill-rule="nonzero"/><path fill="#ff914d" d="M 19.726562 20.738281 C 19.691406 20.472656 19.398438 20.300781 19.117188 20.375 C 18.695312 20.511719 18.5625 20.992188 18.875 21.234375 C 19.257812 21.527344 19.785156 21.144531 19.726562 20.738281 " fill-opacity="1" fill-rule="nonzero"/><path fill="#ff914d" d="M 16.625 28.539062 C 16.746094 28.519531 16.761719 28.453125 16.664062 28.382812 C 16.585938 28.328125 16.375 28.246094 16.160156 28.273438 C 16.089844 28.28125 16.0625 28.304688 16.046875 28.320312 C 15.964844 28.429688 16.367188 28.582031 16.625 28.539062 " fill-opacity="1" fill-rule="nonzero"/><path fill="#ff914d" d="M 9.863281 3.675781 C 9.976562 3.867188 10.261719 3.675781 10.351562 3.355469 C 10.410156 3.140625 10.363281 2.917969 10.203125 2.9375 C 9.957031 2.996094 9.742188 3.464844 9.863281 3.675781 " fill-opacity="1" fill-rule="nonzero"/><path fill="#ff914d" d="M 18.582031 24.40625 C 18.257812 24.503906 18.132812 24.824219 18.34375 25.007812 C 18.644531 25.265625 19.121094 25.011719 19.101562 24.695312 C 19.085938 24.488281 18.828125 24.347656 18.582031 24.40625 " fill-opacity="1" fill-rule="nonzero"/><path fill="#ff914d" d="M 14.503906 8.136719 C 14.78125 8.046875 14.84375 7.769531 14.816406 7.605469 C 14.773438 7.332031 14.507812 7.132812 14.269531 7.1875 C 14.21875 7.203125 14.117188 7.238281 14.035156 7.367188 C 13.800781 7.730469 14.09375 8.214844 14.503906 8.136719 " fill-opacity="1" fill-rule="nonzero"/><path fill="#ff914d" d="M 16.632812 12.148438 C 17.054688 12.46875 17.523438 12.082031 17.441406 11.628906 C 17.390625 11.359375 17.125 11.109375 16.777344 11.179688 C 16.359375 11.320312 16.273438 11.878906 16.632812 12.148438 " fill-opacity="1" fill-rule="nonzero"/><path fill="#ff914d" d="M 7.167969 1.441406 C 7.203125 1.453125 7.46875 1.273438 7.582031 1.199219 C 7.585938 1.195312 8.050781 0.875 8.0625 0.828125 C 7.972656 0.804688 7.160156 1.359375 7.167969 1.441406 " fill-opacity="1" fill-rule="nonzero"/><path fill="#ff914d" d="M 9.964844 1.964844 C 9.78125 2.003906 9.496094 2.433594 9.570312 2.625 C 9.632812 2.796875 9.886719 2.578125 9.996094 2.308594 C 10.070312 2.136719 10.070312 1.953125 9.964844 1.964844 " fill-opacity="1" fill-rule="nonzero"/><path fill="#ff914d" d="M 9.363281 1.074219 C 9.234375 1.078125 8.71875 1.5625 8.722656 1.71875 C 8.726562 1.820312 8.957031 1.652344 9.144531 1.441406 C 9.257812 1.320312 9.4375 1.085938 9.363281 1.074219 " fill-opacity="1" fill-rule="nonzero"/><path fill="#ff914d" d="M 16.664062 28.785156 C 16.539062 28.742188 16.304688 28.707031 16.179688 28.722656 C 16.15625 28.726562 16.117188 28.734375 16.113281 28.75 C 16.085938 28.835938 16.644531 28.902344 16.75 28.855469 C 16.789062 28.835938 16.730469 28.804688 16.664062 28.785156 " fill-opacity="1" fill-rule="nonzero"/><path fill="#ff914d" d="M 5.683594 2.082031 C 5.683594 2.078125 5.6875 2.078125 5.6875 2.074219 C 5.632812 2.097656 4.972656 2.707031 4.9375 2.78125 C 4.953125 2.769531 4.953125 2.769531 5.222656 2.515625 C 5.574219 2.191406 5.65625 2.113281 5.683594 2.082031 " fill-opacity="1" fill-rule="nonzero"/><path fill="#ff914d" d="M 6.230469 1.75 C 6.660156 1.421875 6.695312 1.382812 6.71875 1.355469 C 6.671875 1.332031 5.933594 1.898438 5.925781 1.960938 C 5.933594 1.960938 5.953125 1.964844 6.230469 1.75 " fill-opacity="1" fill-rule="nonzero"/><path fill="#ff914d" d="M 8.941406 0.691406 C 8.960938 0.714844 9.074219 0.652344 9.347656 0.46875 C 9.402344 0.429688 9.691406 0.234375 9.707031 0.199219 C 9.707031 0.199219 9.703125 0.199219 9.703125 0.195312 C 9.648438 0.191406 8.953125 0.597656 8.941406 0.691406 " fill-opacity="1" fill-rule="nonzero"/><path fill="#ff914d" d="M 20.128906 23.289062 C 20.128906 23.285156 20.105469 22.871094 19.648438 22.992188 C 19.121094 23.15625 19.347656 23.578125 19.398438 23.628906 C 19.570312 23.804688 20.105469 23.710938 20.128906 23.289062 " fill-opacity="1" fill-rule="nonzero"/><path fill="#ff914d" d="M 10.054688 1.066406 C 9.910156 1.097656 9.59375 1.492188 9.613281 1.617188 C 9.625 1.714844 9.804688 1.609375 9.957031 1.386719 C 9.996094 1.332031 10.171875 1.0625 10.054688 1.066406 " fill-opacity="1" fill-rule="nonzero"/><path fill="#ff914d" d="M 16.921875 28.96875 C 16.6875 28.957031 16.582031 28.957031 16.503906 28.960938 C 16.464844 28.964844 16.464844 28.96875 16.460938 28.972656 C 16.515625 29.003906 17.007812 28.996094 17.078125 28.976562 C 17.074219 28.976562 17.070312 28.972656 16.921875 28.96875 " fill-opacity="1" fill-rule="nonzero"/><path fill="#ff914d" d="M 20.09375 19.417969 C 20.164062 19.46875 20.359375 19.574219 20.632812 19.390625 C 20.722656 19.332031 20.871094 19.191406 20.832031 18.929688 C 20.785156 18.582031 20.507812 18.535156 20.285156 18.601562 C 19.835938 18.757812 19.882812 19.257812 20.09375 19.417969 " fill-opacity="1" fill-rule="nonzero"/><path fill="#ff914d" d="M 19.398438 16.417969 C 19.617188 16.601562 20.230469 16.496094 20.171875 15.90625 C 20.167969 15.898438 20.089844 15.371094 19.574219 15.5 C 19.023438 15.667969 19.214844 16.265625 19.398438 16.417969 " fill-opacity="1" fill-rule="nonzero"/><path fill="#ff914d" d="M 18.585938 13.25 C 18.628906 13.277344 18.851562 13.414062 19.109375 13.234375 C 19.21875 13.160156 19.339844 13.011719 19.285156 12.761719 C 19.21875 12.4375 18.984375 12.289062 18.679688 12.375 C 18.230469 12.535156 18.332031 13.074219 18.585938 13.25 " fill-opacity="1" fill-rule="nonzero"/><path fill="#ff914d" d="M 15.859375 9.132812 C 16.113281 9.28125 16.570312 9.144531 16.472656 8.683594 C 16.421875 8.445312 16.21875 8.238281 15.933594 8.300781 C 15.484375 8.425781 15.601562 8.980469 15.859375 9.132812 " fill-opacity="1" fill-rule="nonzero"/><path fill="#ff914d" d="M 7.941406 0.671875 C 7.941406 0.667969 7.941406 0.667969 7.9375 0.667969 C 7.867188 0.667969 7.230469 1.058594 7.140625 1.171875 C 7.179688 1.167969 7.273438 1.117188 7.503906 0.96875 C 7.832031 0.761719 7.929688 0.695312 7.941406 0.671875 " fill-opacity="1" fill-rule="nonzero"/><path fill="#ff914d" d="M 17.78125 28.019531 C 17.757812 28.023438 17.714844 28.03125 17.6875 28.054688 C 17.613281 28.105469 17.636719 28.214844 17.824219 28.257812 C 17.984375 28.296875 18.207031 28.234375 18.132812 28.113281 C 18.085938 28.042969 17.960938 27.980469 17.78125 28.019531 " fill-opacity="1" fill-rule="nonzero"/><path fill="#ff914d" d="M 9.417969 0.746094 C 9.476562 0.722656 9.558594 0.683594 9.753906 0.527344 C 9.910156 0.402344 10.09375 0.246094 10.054688 0.238281 C 9.976562 0.242188 9.351562 0.679688 9.417969 0.746094 " fill-opacity="1" fill-rule="nonzero"/><path fill="#ff914d" d="M 8.644531 0.597656 C 8.710938 0.578125 8.816406 0.523438 9.050781 0.382812 C 9.449219 0.152344 9.453125 0.136719 9.460938 0.125 C 9.402344 0.117188 8.691406 0.503906 8.644531 0.597656 " fill-opacity="1" fill-rule="nonzero"/><path fill="#ff914d" d="M 18.320312 27.273438 C 18.308594 27.277344 18.292969 27.28125 18.28125 27.285156 C 18.125 27.332031 18.039062 27.496094 18.242188 27.59375 C 18.421875 27.679688 18.71875 27.578125 18.664062 27.40625 C 18.65625 27.375 18.589844 27.21875 18.320312 27.273438 " fill-opacity="1" fill-rule="nonzero"/><path fill="#ff914d" d="M 11.449219 3.328125 C 11.539062 3.441406 11.804688 3.40625 11.832031 3.046875 C 11.832031 3.046875 11.832031 2.726562 11.621094 2.757812 C 11.382812 2.808594 11.351562 3.199219 11.449219 3.328125 " fill-opacity="1" fill-rule="nonzero"/><path fill="#ff914d" d="M 12.378906 4.320312 C 12.378906 4.320312 12.515625 4.433594 12.640625 4.34375 C 12.6875 4.3125 12.808594 4.226562 12.792969 4.027344 C 12.792969 4.011719 12.765625 3.65625 12.492188 3.703125 C 12.222656 3.765625 12.214844 4.183594 12.378906 4.320312 " fill-opacity="1" fill-rule="nonzero"/><path fill="#ff914d" d="M 19.070312 26.328125 C 18.804688 26.402344 18.792969 26.613281 18.925781 26.710938 C 19.074219 26.816406 19.445312 26.71875 19.414062 26.484375 C 19.394531 26.339844 19.261719 26.28125 19.070312 26.328125 " fill-opacity="1" fill-rule="nonzero"/><path fill="#ff914d" d="M 17.679688 10.171875 C 17.882812 10.304688 18.339844 10.214844 18.261719 9.746094 C 18.25 9.671875 18.105469 9.304688 17.726562 9.414062 C 17.292969 9.5625 17.5 10.058594 17.679688 10.171875 " fill-opacity="1" fill-rule="nonzero"/><path fill="#ff914d" d="M 20.8125 21.40625 C 20.371094 21.554688 20.484375 21.933594 20.554688 22.023438 C 20.71875 22.230469 21.222656 22.101562 21.25 21.683594 C 21.253906 21.621094 21.191406 21.296875 20.8125 21.40625 " fill-opacity="1" fill-rule="nonzero"/><path fill="#ff914d" d="M 6.546875 1.359375 C 6.894531 1.101562 6.894531 1.101562 6.914062 1.082031 C 6.917969 1.078125 6.921875 1.078125 6.921875 1.074219 C 6.867188 1.097656 6.363281 1.472656 6.324219 1.519531 C 6.402344 1.472656 6.472656 1.410156 6.546875 1.359375 " fill-opacity="1" fill-rule="nonzero"/><path fill="#ff914d" d="M 9.300781 0.0351562 C 9.277344 0.0195312 8.636719 0.332031 8.5625 0.417969 C 8.582031 0.421875 8.679688 0.375 8.90625 0.257812 C 9.222656 0.0898438 9.292969 0.0507812 9.300781 0.0351562 " fill-opacity="1" fill-rule="nonzero"/><path fill="#ff914d" d="M 17.769531 28.679688 C 17.875 28.664062 17.898438 28.636719 17.835938 28.59375 C 17.835938 28.59375 17.703125 28.511719 17.511719 28.542969 C 17.488281 28.546875 17.441406 28.558594 17.429688 28.578125 C 17.390625 28.628906 17.585938 28.707031 17.769531 28.679688 " fill-opacity="1" fill-rule="nonzero"/><path fill="#ff914d" d="M 11.179688 2.125 C 11.199219 1.996094 11.199219 1.847656 11.070312 1.863281 C 10.871094 1.902344 10.792969 2.28125 10.867188 2.375 C 10.933594 2.460938 11.128906 2.398438 11.179688 2.125 " fill-opacity="1" fill-rule="nonzero"/><path fill="#ff914d" d="M 20.34375 25.355469 C 20.34375 25.261719 20.296875 25.113281 20.023438 25.179688 C 19.628906 25.300781 19.792969 25.574219 19.828125 25.609375 C 19.960938 25.726562 20.355469 25.617188 20.34375 25.355469 " fill-opacity="1" fill-rule="nonzero"/><path fill="#ff914d" d="M 10.304688 0.492188 C 10.3125 0.484375 10.320312 0.472656 10.328125 0.464844 C 10.511719 0.277344 10.5 0.253906 10.476562 0.257812 C 10.382812 0.269531 10.019531 0.605469 10.015625 0.683594 C 10.011719 0.71875 10.082031 0.71875 10.304688 0.492188 " fill-opacity="1" fill-rule="nonzero"/><path fill="#ff914d" d="M 13.597656 5.316406 C 13.765625 5.429688 14.09375 5.320312 14.023438 4.980469 C 13.984375 4.804688 13.871094 4.632812 13.65625 4.683594 C 13.328125 4.78125 13.441406 5.214844 13.597656 5.316406 " fill-opacity="1" fill-rule="nonzero"/><path fill="#ff914d" d="M 15.0625 6.296875 C 15.265625 6.417969 15.578125 6.269531 15.484375 5.953125 C 15.445312 5.828125 15.34375 5.621094 15.085938 5.679688 C 14.75 5.773438 14.894531 6.199219 15.0625 6.296875 " fill-opacity="1" fill-rule="nonzero"/><path fill="#ff914d" d="M 20.519531 14.265625 C 20.703125 14.433594 21.171875 14.378906 21.132812 13.851562 C 21.121094 13.703125 20.941406 13.582031 20.9375 13.582031 C 20.824219 13.507812 20.714844 13.539062 20.65625 13.554688 C 20.25 13.6875 20.363281 14.125 20.519531 14.265625 " fill-opacity="1" fill-rule="nonzero"/><path fill="#ff914d" d="M 17.519531 28.84375 C 17.503906 28.847656 17.46875 28.851562 17.46875 28.863281 C 17.46875 28.875 17.546875 28.886719 17.667969 28.886719 C 17.730469 28.886719 17.871094 28.878906 17.878906 28.863281 C 17.875 28.859375 17.867188 28.859375 17.820312 28.851562 C 17.816406 28.851562 17.648438 28.824219 17.519531 28.84375 " fill-opacity="1" fill-rule="nonzero"/><path fill="#ff914d" d="M 10.605469 1.4375 C 10.613281 1.460938 10.640625 1.511719 10.714844 1.457031 C 10.753906 1.425781 10.816406 1.371094 10.867188 1.246094 C 10.902344 1.15625 10.949219 1.007812 10.855469 1.015625 C 10.730469 1.035156 10.570312 1.339844 10.605469 1.4375 " fill-opacity="1" fill-rule="nonzero"/><path fill="#ff914d" d="M 21.316406 17.421875 C 21.417969 17.492188 21.621094 17.496094 21.691406 17.449219 C 21.757812 17.402344 21.957031 17.261719 21.914062 17.003906 C 21.882812 16.800781 21.730469 16.628906 21.464844 16.714844 C 21.046875 16.867188 21.167969 17.316406 21.316406 17.421875 " fill-opacity="1" fill-rule="nonzero"/><path fill="#ff914d" d="M 7.621094 0.707031 C 7.625 0.703125 7.953125 0.511719 7.992188 0.476562 C 7.992188 0.472656 7.992188 0.472656 7.992188 0.472656 C 7.9375 0.480469 7.4375 0.769531 7.371094 0.839844 C 7.371094 0.839844 7.371094 0.84375 7.371094 0.84375 C 7.394531 0.835938 7.453125 0.804688 7.621094 0.707031 " fill-opacity="1" fill-rule="nonzero"/><path fill="#ff914d" d="M 22.03125 19.691406 C 21.71875 19.792969 21.691406 20.117188 21.835938 20.265625 C 22 20.429688 22.390625 20.253906 22.386719 19.949219 C 22.382812 19.890625 22.363281 19.597656 22.03125 19.691406 " fill-opacity="1" fill-rule="nonzero"/><path fill="#ff914d" d="M 21.40625 24.03125 C 21.40625 23.953125 21.378906 23.777344 21.121094 23.847656 C 20.820312 23.9375 20.828125 24.195312 20.910156 24.285156 C 21.039062 24.421875 21.402344 24.273438 21.40625 24.03125 " fill-opacity="1" fill-rule="nonzero"/><path fill="#ff914d" d="M 19.617188 11.164062 C 19.828125 11.300781 20.195312 11.132812 20.101562 10.800781 C 20.078125 10.714844 19.976562 10.4375 19.664062 10.527344 C 19.308594 10.644531 19.441406 11.054688 19.617188 11.164062 " fill-opacity="1" fill-rule="nonzero"/><path fill="#ff914d" d="M 16.71875 7.253906 C 16.875 7.351562 17.207031 7.289062 17.125 6.949219 C 17.125 6.945312 17.03125 6.609375 16.730469 6.695312 C 16.398438 6.808594 16.601562 7.179688 16.71875 7.253906 " fill-opacity="1" fill-rule="nonzero"/><path fill="#ff914d" d="M 10.898438 0.433594 C 10.914062 0.414062 11.035156 0.246094 10.976562 0.246094 C 10.886719 0.265625 10.699219 0.519531 10.703125 0.574219 C 10.703125 0.578125 10.730469 0.664062 10.898438 0.433594 " fill-opacity="1" fill-rule="nonzero"/><path fill="#ff914d" d="M 18.886719 28.300781 C 18.878906 28.300781 18.867188 28.304688 18.859375 28.308594 C 18.773438 28.335938 18.796875 28.378906 18.835938 28.402344 C 18.902344 28.433594 19.070312 28.40625 19.042969 28.335938 C 19.042969 28.335938 19.007812 28.277344 18.886719 28.300781 " fill-opacity="1" fill-rule="nonzero"/><path fill="#ff914d" d="M 22.300781 22.363281 C 22.136719 22.421875 22.023438 22.621094 22.128906 22.746094 C 22.234375 22.871094 22.523438 22.753906 22.542969 22.527344 C 22.558594 22.355469 22.433594 22.320312 22.300781 22.363281 " fill-opacity="1" fill-rule="nonzero"/><path fill="#ff914d" d="M 18.566406 8.195312 C 18.761719 8.289062 18.976562 8.136719 18.886719 7.902344 C 18.828125 7.746094 18.691406 7.675781 18.546875 7.722656 C 18.285156 7.820312 18.425781 8.125 18.566406 8.195312 " fill-opacity="1" fill-rule="nonzero"/><path fill="#ff914d" d="M 19.441406 27.699219 C 19.316406 27.730469 19.296875 27.808594 19.339844 27.851562 C 19.410156 27.921875 19.609375 27.859375 19.601562 27.769531 C 19.601562 27.730469 19.566406 27.671875 19.441406 27.699219 " fill-opacity="1" fill-rule="nonzero"/><path fill="#ff914d" d="M 22.503906 15.269531 C 22.628906 15.363281 22.914062 15.257812 22.871094 14.996094 C 22.851562 14.863281 22.78125 14.71875 22.578125 14.78125 C 22.308594 14.878906 22.390625 15.183594 22.503906 15.269531 " fill-opacity="1" fill-rule="nonzero"/><g clip-path="url(#097ae3b351)"><path fill="#ff914d" d="M 23.234375 17.878906 C 22.976562 17.96875 23.035156 18.253906 23.121094 18.316406 C 23.125 18.316406 23.234375 18.390625 23.375 18.289062 C 23.402344 18.265625 23.496094 18.199219 23.484375 18.050781 C 23.472656 17.960938 23.429688 17.816406 23.234375 17.878906 " fill-opacity="1" fill-rule="nonzero"/></g><path fill="#ff914d" d="M 20.214844 26.890625 C 20.023438 26.945312 20.097656 27.078125 20.097656 27.078125 C 20.148438 27.140625 20.359375 27.09375 20.371094 26.964844 C 20.375 26.929688 20.367188 26.847656 20.214844 26.890625 " fill-opacity="1" fill-rule="nonzero"/><path fill="#ff914d" d="M 14.304688 3.742188 C 14.386719 3.792969 14.566406 3.742188 14.507812 3.558594 C 14.488281 3.5 14.429688 3.363281 14.292969 3.402344 C 14.109375 3.460938 14.222656 3.695312 14.304688 3.742188 " fill-opacity="1" fill-rule="nonzero"/><path fill="#ff914d" d="M 18.734375 28.679688 C 18.71875 28.671875 18.671875 28.65625 18.589844 28.671875 C 18.578125 28.675781 18.550781 28.679688 18.546875 28.691406 C 18.535156 28.710938 18.65625 28.726562 18.726562 28.703125 C 18.75 28.695312 18.75 28.6875 18.734375 28.679688 " fill-opacity="1" fill-rule="nonzero"/><path fill="#ff914d" d="M 13.105469 2.863281 C 13.167969 2.914062 13.335938 2.910156 13.3125 2.707031 C 13.3125 2.707031 13.277344 2.507812 13.128906 2.542969 C 12.984375 2.585938 13.035156 2.804688 13.105469 2.863281 " fill-opacity="1" fill-rule="nonzero"/><path fill="#ff914d" d="M 11.796875 1.078125 C 11.804688 1.03125 11.8125 0.925781 11.742188 0.933594 C 11.648438 0.953125 11.625 1.144531 11.664062 1.1875 C 11.695312 1.226562 11.777344 1.203125 11.796875 1.078125 " fill-opacity="1" fill-rule="nonzero"/><path fill="#ff914d" d="M 12.226562 2.015625 C 12.246094 2.03125 12.292969 2.0625 12.351562 2.007812 C 12.375 1.988281 12.402344 1.945312 12.394531 1.859375 C 12.394531 1.820312 12.375 1.691406 12.273438 1.714844 C 12.144531 1.75 12.167969 1.964844 12.226562 2.015625 " fill-opacity="1" fill-rule="nonzero"/><path fill="#ff914d" d="M 21.605469 12.125 C 21.710938 12.1875 21.992188 12.136719 21.929688 11.847656 C 21.929688 11.84375 21.867188 11.597656 21.636719 11.667969 C 21.375 11.761719 21.496094 12.058594 21.605469 12.125 " fill-opacity="1" fill-rule="nonzero"/><path fill="#ff914d" d="M 15.761719 4.609375 C 15.863281 4.648438 15.890625 4.617188 15.921875 4.582031 C 15.941406 4.5625 15.976562 4.507812 15.9375 4.417969 C 15.894531 4.316406 15.800781 4.261719 15.710938 4.289062 C 15.707031 4.289062 15.703125 4.292969 15.699219 4.292969 C 15.578125 4.34375 15.621094 4.558594 15.761719 4.609375 " fill-opacity="1" fill-rule="nonzero"/><path fill="#ff914d" d="M 21.195312 25.855469 C 21.0625 25.898438 21.019531 26.007812 21.058594 26.0625 C 21.09375 26.117188 21.199219 26.089844 21.199219 26.089844 C 21.203125 26.089844 21.3125 26.027344 21.328125 25.953125 C 21.335938 25.917969 21.328125 25.824219 21.195312 25.855469 " fill-opacity="1" fill-rule="nonzero"/><path fill="#ff914d" d="M 22.308594 24.644531 C 22.171875 24.691406 22.179688 24.808594 22.199219 24.832031 C 22.238281 24.882812 22.390625 24.835938 22.414062 24.726562 C 22.417969 24.703125 22.433594 24.601562 22.308594 24.644531 " fill-opacity="1" fill-rule="nonzero"/><g clip-path="url(#f1beb56ffd)"><path fill="#ff914d" d="M 23.542969 20.734375 C 23.402344 20.785156 23.375 20.949219 23.4375 21.019531 C 23.503906 21.09375 23.699219 20.996094 23.707031 20.851562 C 23.710938 20.789062 23.691406 20.6875 23.542969 20.734375 " fill-opacity="1" fill-rule="nonzero"/></g><path fill="#ff914d" d="M 20.5 9.09375 C 20.601562 9.144531 20.78125 9.066406 20.714844 8.898438 C 20.691406 8.832031 20.628906 8.730469 20.496094 8.769531 C 20.304688 8.839844 20.417969 9.050781 20.5 9.09375 " fill-opacity="1" fill-rule="nonzero"/><path fill="#ff914d" d="M 17.414062 5.449219 C 17.417969 5.453125 17.484375 5.476562 17.527344 5.433594 C 17.558594 5.402344 17.570312 5.363281 17.550781 5.316406 C 17.550781 5.316406 17.492188 5.183594 17.378906 5.210938 C 17.371094 5.214844 17.367188 5.21875 17.363281 5.21875 C 17.253906 5.269531 17.332031 5.417969 17.414062 5.449219 " fill-opacity="1" fill-rule="nonzero"/></svg>